<svg width="64" height="64" viewBox="0 0 64 64" fill="none" xmlns="http://www.w3.org/2000/svg">
<path fill-rule="evenodd" clip-rule="evenodd" d="M30.3298 12.5263C20.3272 13.4724 12.4781 21.8452 12.4781 32.0002C12.4781 42.7868 21.3348 51.5629 32.2215 51.5629C40.3767 51.5629 47.6138 46.5569 50.5633 39.2643C49.9454 39.3219 49.3224 39.351 48.696 39.351C37.7983 39.351 28.9321 30.5661 28.9321 19.7682C28.9321 17.2656 29.4093 14.8144 30.3298 12.5263ZM32.2215 56C18.8659 56 8 45.2336 8 32.0002C8 18.7664 18.8659 8 32.2215 8C32.8823 8 33.5481 8.02761 34.1999 8.08184C34.986 8.1479 35.6791 8.61774 36.0244 9.32028C36.3707 10.0223 36.318 10.8531 35.8866 11.5073C34.2665 13.9615 33.4102 16.8185 33.4102 19.7682C33.4102 28.1193 40.2677 34.9139 48.696 34.9139C50.2086 34.9139 51.6938 34.6975 53.1089 34.2701C53.8627 34.0433 54.6852 34.2257 55.2683 34.7527C55.8525 35.2788 56.1127 36.0715 55.9545 36.8377C53.6612 47.9408 43.68 56 32.2215 56Z" fill="#404040"/>
</svg>
